<?xml version="1.0" encoding="UTF-8"?>
<svg id="Layer_1" xmlns="http://www.w3.org/2000/svg" version="1.1" viewBox="0 0 275.1 285.6">
  <!-- Generator: Adobe Illustrator 29.1.0, SVG Export Plug-In . SVG Version: 2.1.0 Build 142)  -->
  <defs>
    <style>
      .st0 {
        stroke: #b74329;
        stroke-width: 3px;
      }

      .st0, .st1 {
        fill: none;
        stroke-miterlimit: 10;
      }

      .st1 {
        opacity: .5;
        stroke: #df562c;
        stroke-width: 2px;
      }

      .st2 {
        fill: #df562c;
      }
    </style>
  </defs>
  <circle class="st0" cx="136.8" cy="142.5" r="80.4"/>
  <polygon class="st1" points="162.3 146 199.3 131.7 162 137.1 191.8 111 158.6 128.8 177.7 94.1 152.6 122.2 158.7 83 144.7 118 137.1 79.1 135.9 116.8 115.4 82.9 127.1 118.7 96.3 93.8 119.6 123.4 82.1 110.6 114.1 130.5 74.5 131.3 111.3 139 74.4 153.3 111.7 147.9 81.8 174 115 156.2 95.9 190.9 121 162.8 114.9 202 128.9 167 136.6 205.9 137.8 168.2 158.3 202.1 146.5 166.3 177.4 191.2 154.1 161.6 191.6 174.4 159.6 154.5 199.2 153.7 162.3 146"/>
  <polygon class="st2" points="265.2 141.9 160.4 130.6 204.9 73.7 148 122.2 137.5 11.7 127.1 122.2 67.4 73.7 114.2 130.6 9.9 141.9 114.7 153.1 70.2 210.1 127.1 161.6 137.5 272 148 161.6 207.7 210.1 160.9 153.1 265.2 141.9"/>
</svg>